<mxfile host="app.diagrams.net" modified="2023-11-20T03:28:43.037Z" agent="Mozilla/5.0 (Windows NT 10.0; Win64; x64; rv:109.0) Gecko/20100101 Firefox/119.0" etag="fNtPd0UMCMpOQcTMqO6P" version="22.1.3" type="github">
  <diagram name="Page-1" id="f-4vTR8PdtFEE_OZzD8Q">
    <mxGraphModel dx="794" dy="339" grid="1" gridSize="10" guides="1" tooltips="1" connect="1" arrows="1" fold="1" page="1" pageScale="1" pageWidth="850" pageHeight="1100" math="0" shadow="0">
      <root>
        <mxCell id="0" />
        <mxCell id="1" parent="0" />
        <mxCell id="wH-s8Me-Fgao8LTVL9Cx-3" value="" style="edgeStyle=orthogonalEdgeStyle;rounded=0;orthogonalLoop=1;jettySize=auto;html=1;" edge="1" parent="1" source="wH-s8Me-Fgao8LTVL9Cx-1" target="wH-s8Me-Fgao8LTVL9Cx-2">
          <mxGeometry relative="1" as="geometry" />
        </mxCell>
        <mxCell id="wH-s8Me-Fgao8LTVL9Cx-1" value="Signup" style="rounded=1;whiteSpace=wrap;html=1;" vertex="1" parent="1">
          <mxGeometry x="80" y="30" width="120" height="60" as="geometry" />
        </mxCell>
        <mxCell id="wH-s8Me-Fgao8LTVL9Cx-9" style="edgeStyle=orthogonalEdgeStyle;rounded=0;orthogonalLoop=1;jettySize=auto;html=1;entryX=0.5;entryY=0;entryDx=0;entryDy=0;" edge="1" parent="1" source="wH-s8Me-Fgao8LTVL9Cx-2" target="wH-s8Me-Fgao8LTVL9Cx-8">
          <mxGeometry relative="1" as="geometry" />
        </mxCell>
        <mxCell id="wH-s8Me-Fgao8LTVL9Cx-2" value="Connect Store" style="whiteSpace=wrap;html=1;rounded=1;" vertex="1" parent="1">
          <mxGeometry x="80" y="170" width="120" height="60" as="geometry" />
        </mxCell>
        <mxCell id="wH-s8Me-Fgao8LTVL9Cx-4" value="Database" style="shape=cylinder3;whiteSpace=wrap;html=1;boundedLbl=1;backgroundOutline=1;size=15;" vertex="1" parent="1">
          <mxGeometry x="440" y="20" width="60" height="80" as="geometry" />
        </mxCell>
        <mxCell id="wH-s8Me-Fgao8LTVL9Cx-6" value="EBay Apis" style="shape=cylinder3;whiteSpace=wrap;html=1;boundedLbl=1;backgroundOutline=1;size=15;" vertex="1" parent="1">
          <mxGeometry x="440" y="160" width="60" height="80" as="geometry" />
        </mxCell>
        <mxCell id="wH-s8Me-Fgao8LTVL9Cx-8" value="Fetch Products" style="rounded=1;whiteSpace=wrap;html=1;" vertex="1" parent="1">
          <mxGeometry x="80" y="310" width="120" height="60" as="geometry" />
        </mxCell>
        <mxCell id="wH-s8Me-Fgao8LTVL9Cx-10" value="" style="shape=cylinder3;whiteSpace=wrap;html=1;boundedLbl=1;backgroundOutline=1;size=15;" vertex="1" parent="1">
          <mxGeometry x="440" y="300" width="60" height="80" as="geometry" />
        </mxCell>
        <mxCell id="wH-s8Me-Fgao8LTVL9Cx-14" value="" style="shape=flexArrow;endArrow=classic;startArrow=classic;html=1;rounded=0;entryX=0;entryY=0.5;entryDx=0;entryDy=0;entryPerimeter=0;exitX=1;exitY=0.5;exitDx=0;exitDy=0;" edge="1" parent="1" source="wH-s8Me-Fgao8LTVL9Cx-1" target="wH-s8Me-Fgao8LTVL9Cx-4">
          <mxGeometry width="100" height="100" relative="1" as="geometry">
            <mxPoint x="200" y="70" as="sourcePoint" />
            <mxPoint x="300" y="-30" as="targetPoint" />
          </mxGeometry>
        </mxCell>
        <mxCell id="wH-s8Me-Fgao8LTVL9Cx-15" value="" style="shape=flexArrow;endArrow=classic;startArrow=classic;html=1;rounded=0;" edge="1" parent="1" source="wH-s8Me-Fgao8LTVL9Cx-8" target="wH-s8Me-Fgao8LTVL9Cx-10">
          <mxGeometry width="100" height="100" relative="1" as="geometry">
            <mxPoint x="200" y="339.5" as="sourcePoint" />
            <mxPoint x="440" y="339.5" as="targetPoint" />
          </mxGeometry>
        </mxCell>
        <mxCell id="wH-s8Me-Fgao8LTVL9Cx-16" value="" style="shape=flexArrow;endArrow=classic;startArrow=classic;html=1;rounded=0;entryX=0;entryY=0.5;entryDx=0;entryDy=0;entryPerimeter=0;exitX=1;exitY=0.5;exitDx=0;exitDy=0;" edge="1" parent="1">
          <mxGeometry width="100" height="100" relative="1" as="geometry">
            <mxPoint x="200" y="199.5" as="sourcePoint" />
            <mxPoint x="440" y="199.5" as="targetPoint" />
          </mxGeometry>
        </mxCell>
      </root>
    </mxGraphModel>
  </diagram>
</mxfile>
